<?xml version="1.0" encoding="UTF-8" standalone="no"?>
<!-- Created with Inkscape (http://www.inkscape.org/) -->

<svg
   width="1280"
   height="1280"
   viewBox="0 0 338.66666 338.66666"
   version="1.1"
   id="svg5"
   sodipodi:docname="solide-small.svg"
   inkscape:version="1.2.2 (b0a8486541, 2022-12-01)"
   xml:space="preserve"
   xmlns:inkscape="http://www.inkscape.org/namespaces/inkscape"
   xmlns:sodipodi="http://sodipodi.sourceforge.net/DTD/sodipodi-0.dtd"
   xmlns="http://www.w3.org/2000/svg"
   xmlns:svg="http://www.w3.org/2000/svg"><sodipodi:namedview
     id="namedview7"
     pagecolor="#505050"
     bordercolor="#ffffff"
     borderopacity="1"
     inkscape:showpageshadow="0"
     inkscape:pageopacity="0"
     inkscape:pagecheckerboard="1"
     inkscape:deskcolor="#505050"
     inkscape:document-units="mm"
     showgrid="false"
     inkscape:zoom="0.53165938"
     inkscape:cx="395.93019"
     inkscape:cy="683.70843"
     inkscape:window-width="1920"
     inkscape:window-height="1022"
     inkscape:window-x="0"
     inkscape:window-y="0"
     inkscape:window-maximized="1"
     inkscape:current-layer="layer1" /><defs
     id="defs2" /><g
     inkscape:label="Layer 1"
     inkscape:groupmode="layer"
     id="layer1"><a
       id="a224"
       transform="translate(9.3333333,9.3333333)"
       style="fill:#5a4ae3;fill-opacity:1"><circle
         style="fill:#5a4ae3;stroke-width:0.252937;fill-opacity:1"
         id="path111"
         cx="160"
         cy="160"
         r="160" /></a><path
       d="m 222.62549,79.493153 c 2.50737,-5.822204 0.63746,-12.62183 -4.50476,-16.361624 -5.14223,-3.73981 -12.15434,-3.399823 -16.95659,0.76496 L 92.369944,159.09138 c -4.249769,3.73981 -5.779686,9.73198 -3.782291,15.0017 1.997394,5.26972 7.097117,8.83952 12.749317,8.83952 h 47.38497 l -32.68073,76.24092 c -2.50738,5.82218 -0.63747,12.62181 4.50474,16.36162 5.14223,3.7398 12.15435,3.39982 16.9566,-0.76495 l 108.79418,-95.19491 c 4.24977,-3.73979 5.77968,-9.73198 3.78229,-15.00169 -1.99738,-5.26971 -7.05461,-8.79704 -12.74932,-8.79704 h -47.38495 z"
       id="path5980"
       style="fill:#ffffff;stroke-width:0.424977" /></g></svg>
